<?xml version="1.0" encoding="UTF-8"?>
<svg version="1.1" xmlns="http://www.w3.org/2000/svg" width="1024" height="1024">
<path d="M0 0 C337.92 0 675.84 0 1024 0 C1024 337.92 1024 675.84 1024 1024 C686.08 1024 348.16 1024 0 1024 C0 686.08 0 348.16 0 0 Z " fill="#000000" transform="translate(0,0)"/>
<path d="M0 0 C2.36719437 -0.00489497 4.73438635 -0.01108756 7.1015743 -0.01845789 C12.8989389 -0.03309411 18.69618768 -0.03390456 24.49356569 -0.02868542 C31.44500874 -0.02319884 38.39639553 -0.03515068 45.34782596 -0.04745606 C59.75551448 -0.07230699 74.1631658 -0.07688804 88.57087232 -0.07499009 C99.69645758 -0.07361503 110.82203001 -0.07744438 121.94761276 -0.08491516 C123.54811402 -0.08596551 125.14861527 -0.08701313 126.74911653 -0.08805802 C127.5436356 -0.08857737 128.33815468 -0.08909671 129.15675008 -0.08963179 C130.35074517 -0.09041201 130.35074517 -0.09041201 131.56886137 -0.09120798 C132.36622282 -0.09173197 133.16358428 -0.09225597 133.9851082 -0.09279584 C156.39625413 -0.10736909 178.80739535 -0.11566589 201.21854591 -0.11104584 C202.06260676 -0.11087388 202.90666761 -0.11070193 203.77630607 -0.11052476 C208.0540029 -0.10963592 212.33169972 -0.10869111 216.60939653 -0.10772675 C217.4589103 -0.10753572 218.30842406 -0.10734469 219.18368067 -0.10714786 C220.90159981 -0.10676077 222.61951895 -0.10637044 224.33743809 -0.10597689 C251.07886572 -0.10000452 277.82020686 -0.11545978 304.56161499 -0.14758301 C334.62821602 -0.1836703 364.69476222 -0.20299159 394.76138628 -0.1980443 C397.96784043 -0.19757434 401.17429458 -0.19716408 404.38074875 -0.1967926 C405.56495558 -0.19663902 405.56495558 -0.19663902 406.77308578 -0.19648234 C418.6811121 -0.19528844 430.58907906 -0.20724218 442.49708939 -0.22593689 C456.03904434 -0.24718691 469.58087489 -0.25101003 483.12283541 -0.2316373 C490.03079108 -0.22222939 496.93852083 -0.22069405 503.84645653 -0.24199295 C510.17267349 -0.26068811 516.49843941 -0.25621494 522.82463913 -0.23344713 C525.11041029 -0.22925792 527.39621593 -0.23347205 529.68195064 -0.24704307 C552.3239578 -0.37229715 566.93246983 5.49060781 583.53036499 21.39440918 C584.43786499 22.24003418 585.34536499 23.08565918 586.28036499 23.95690918 C599.28368269 38.04383669 603.99934326 53.48946006 603.9315033 72.37696838 C603.93711785 73.87094128 603.94402401 75.36490978 603.95209926 76.8588714 C603.97034702 80.93809007 603.97006516 85.01712333 603.96651614 89.09637344 C603.9659014 93.50627374 603.98248635 97.9161159 603.99668884 102.32598877 C604.02155272 110.95661566 604.02985087 119.58718107 604.03152598 128.2178408 C604.03295429 135.23831403 604.03913264 142.25876709 604.04862785 149.27923393 C604.07503391 169.21059543 604.08888834 189.14190856 604.08663643 209.07328767 C604.08651656 210.14661861 604.08639669 211.21994955 604.08627319 212.32580566 C604.08615055 213.40045672 604.08602791 214.47510778 604.08590155 215.58232402 C604.08468295 232.9871373 604.11337519 250.39175563 604.15568829 267.79651255 C604.19885396 285.69409797 604.2194947 303.59158847 604.21690696 321.48922724 C604.21591352 331.52669064 604.22404566 341.56394972 604.25644112 351.60136604 C604.28385457 360.14955589 604.29020201 368.69744883 604.26991285 377.24566377 C604.26016562 381.60047606 604.2597682 385.95471983 604.2859726 390.30947685 C604.44231524 418.02626322 601.82967232 438.68012453 581.53036499 459.39440918 C580.8664978 460.09437012 580.20263062 460.79433105 579.51864624 461.51550293 C575.00125271 465.92964175 570.11825714 468.92520645 564.53036499 471.76940918 C563.8780188 472.1034375 563.22567261 472.43746582 562.55355835 472.78161621 C554.39944231 476.72718898 546.43221493 477.69272287 537.45361137 477.6544714 C536.47352911 477.65827707 535.49344684 477.66208274 534.48366511 477.66600373 C531.20367601 477.67629978 527.9238606 477.67241696 524.64385986 477.66856384 C522.26677123 477.67301731 519.88968408 477.67833171 517.51259911 477.68443257 C512.34631766 477.69565002 507.18006878 477.70064627 502.01377678 477.70011139 C494.33093949 477.69931687 486.64814663 477.70988126 478.96532123 477.72252696 C463.64423054 477.74724449 448.3231507 477.75604725 433.00204281 477.76106345 C432.2089419 477.76132462 431.41584099 477.7615858 430.59870672 477.76185489 C429.80398648 477.76211516 429.00926623 477.76237544 428.19046355 477.7626436 C419.37748391 477.76572782 410.56450726 477.77223324 401.75152969 477.77885628 C375.12568496 477.79850164 348.49984346 477.81490752 321.87399101 477.81773281 C321.02265306 477.81782687 320.17131511 477.81792093 319.29417905 477.81801784 C315.84418283 477.81839632 312.39418661 477.81876032 308.94419039 477.81912082 C306.34758973 477.81939254 303.75098908 477.81966922 301.15438843 477.81994629 C300.29637156 477.82003431 299.43835468 477.82012233 298.5543373 477.82021302 C271.59904864 477.82311803 244.64383172 477.84521149 217.68856812 477.88146973 C187.39493026 477.92221759 157.10134128 477.94589153 126.80767453 477.94619232 C123.57581464 477.94628914 120.34395476 477.94645586 117.11209488 477.94667244 C115.91847291 477.94673861 115.91847291 477.94673861 114.70073737 477.94680612 C101.90872896 477.94792482 89.11679257 477.9653168 76.32480734 477.98849176 C63.46227595 478.01136181 50.59984161 478.01554176 37.73729734 478.00094246 C30.10179409 477.99280613 22.46659703 477.99842796 14.83113107 478.02412331 C9.1209518 478.04178432 3.41104849 478.03313338 -2.29911648 478.01447821 C-4.60260173 478.01098699 -6.90611884 478.01587753 -9.20956232 478.03018265 C-33.27617961 478.16996444 -49.37939622 472.01531592 -66.81338501 455.14050293 C-80.68183528 440.80297273 -85.94709984 422.96346614 -85.85731506 403.46086121 C-85.86149495 401.97228829 -85.86697604 400.48371857 -85.87363487 398.99515468 C-85.88802256 394.93100366 -85.88386579 390.86705658 -85.87646806 386.80289471 C-85.87172203 382.40944043 -85.88425895 378.01602937 -85.89448547 373.62258911 C-85.9116512 365.02537852 -85.91251805 356.42824109 -85.90727257 347.83101781 C-85.9032252 340.84006913 -85.90468116 333.84914201 -85.91002083 326.85819435 C-85.91076925 325.86182145 -85.91151767 324.86544856 -85.91228877 323.83888254 C-85.91382031 321.81450265 -85.91535866 319.79012276 -85.91690374 317.76574288 C-85.93062093 298.79588297 -85.92519676 279.82606434 -85.91371853 260.85620538 C-85.90378873 243.51986432 -85.91672384 226.18363003 -85.94065272 208.84730544 C-85.96506398 191.02658294 -85.9746465 173.20591012 -85.96799999 155.38517123 C-85.96451206 145.38812932 -85.96671164 135.39116948 -85.98425102 125.39414024 C-85.99899842 116.88320887 -85.9995754 108.37241736 -85.98218011 99.86148866 C-85.9736883 95.52349443 -85.97147579 91.18574977 -85.98683167 86.84776878 C-86.00074349 82.86828629 -85.99583314 78.88926566 -85.97659243 74.90980945 C-85.97285186 73.47854058 -85.97569767 72.04723414 -85.98620408 70.61599895 C-86.11200932 52.14918299 -80.54741069 36.04508573 -67.72036743 22.57287598 C-48.03830718 2.6509125 -26.76482194 -0.0687762 0 0 Z " fill="#FDFDFD" transform="translate(254.46963500976563,167.6055908203125)"/>
<path d="M0 0 C1.22799304 -0.00529263 1.22799304 -0.00529263 2.48079401 -0.01069218 C3.82438247 -0.00889551 3.82438247 -0.00889551 5.19511414 -0.00706255 C6.15344223 -0.00971438 7.11177033 -0.01236621 8.09913868 -0.01509839 C11.33516044 -0.02280487 14.57114434 -0.02335108 17.80717468 -0.02394831 C20.14083714 -0.02796205 22.47449891 -0.03240012 24.80815983 -0.03722787 C30.5652212 -0.0479511 36.32227416 -0.05395173 42.07934384 -0.05793675 C48.97366276 -0.0629461 55.86796987 -0.07367369 62.76228181 -0.08441848 C79.42774943 -0.11004931 96.09322164 -0.12508449 112.7587033 -0.13792895 C118.27875294 -0.14218368 123.79880225 -0.14674941 129.31885147 -0.15151227 C158.66957554 -0.17677293 188.02030017 -0.19882095 217.37103271 -0.21124041 C224.17152407 -0.21416174 230.9720154 -0.21712926 237.77250671 -0.22014582 C238.61738187 -0.22051673 239.46225702 -0.22088764 240.33273445 -0.22126979 C267.72268233 -0.23342402 295.11256594 -0.26436593 322.50248364 -0.30606735 C350.66103944 -0.34886081 378.8195613 -0.37548217 406.97815051 -0.38071512 C410.95590795 -0.38145556 414.93366534 -0.38236625 418.91142273 -0.3833729 C419.69427397 -0.38356352 420.47712522 -0.38375413 421.28369923 -0.38395052 C433.87852543 -0.38746305 446.47327109 -0.40775612 459.06806772 -0.43416954 C471.73063553 -0.46032443 484.39311036 -0.46803726 497.05570132 -0.45706825 C503.91485887 -0.45162056 510.77378292 -0.45414362 517.63290215 -0.47953379 C523.91385011 -0.501989 530.19435769 -0.50131467 536.47531319 -0.48232992 C538.74592303 -0.47952475 541.01656251 -0.48515697 543.28712463 -0.50014286 C559.27151042 -0.59917901 570.75625029 0.20282941 582.75639343 11.87604558 C591.83622141 21.50667195 593.33760301 31.22672592 593.24215698 44.2531513 C593.24472026 45.54393099 593.24728353 46.83471068 593.24992448 48.1646049 C593.25659078 51.72220853 593.24469052 55.27953807 593.2295903 58.83710682 C593.21657806 62.68291057 593.22102305 66.52870012 593.22329712 70.37451971 C593.22486659 77.02930747 593.21549162 83.68400668 593.1985836 90.33877218 C593.17415377 99.96031141 593.16638426 109.58180802 593.16261963 119.20337491 C593.15606139 134.81548078 593.13611726 150.42753951 593.10771179 166.0396198 C593.08015497 181.20107575 593.05892934 196.36251886 593.04618835 211.5239948 C593.04540018 212.45928418 593.04461201 213.39457356 593.04379996 214.35820504 C593.03988471 219.05049698 593.03609362 223.74278902 593.03236425 228.43508112 C593.00128788 267.33340436 592.94846918 306.23167498 592.88139343 345.12995183 C586.0536579 338.37725606 580.43007594 330.56915974 574.60038757 322.95734441 C571.36623652 318.74069795 568.06402707 314.58306615 564.73295593 310.44245183 C562.40688897 307.53732179 560.12602369 304.59878884 557.84623718 301.65729558 C554.98236572 297.9735484 552.09788506 294.30609726 549.21244812 290.63922918 C546.82941984 287.61062866 544.45002714 284.57937519 542.08061218 281.54010808 C537.73904812 275.97855609 533.3603927 270.46757831 528.81889343 265.06745183 C524.91327775 260.41908832 521.17455274 255.67388046 517.49272156 250.84894598 C512.30702101 244.05343248 506.94173374 237.41410829 501.50639343 230.81745183 C497.83237242 226.33816594 494.27349375 221.77960784 490.75297546 217.17975652 C484.27211697 208.71302943 477.73692633 200.29801556 470.88139343 192.12995183 C463.88594619 183.79093457 457.10537418 175.28567502 450.75639343 166.44245183 C447.44536619 161.83522123 443.92541517 157.45229441 440.30326843 153.08698308 C437.58532259 149.76845889 434.95140975 146.39123444 432.31889343 143.00495183 C428.59098728 138.21921359 424.73103404 133.62760512 420.64311218 129.14167058 C418.93044996 127.18596982 417.40171255 125.1747038 415.88139343 123.06745183 C409.80369799 114.90411292 404.12885941 109.26762401 393.88139343 107.12995183 C385.93099838 106.22025228 378.52477124 106.33800719 371.88139343 111.12995183 C365.02977102 117.03396299 358.91924785 123.69545165 353.54545593 130.96198308 C351.64995381 133.43147529 349.60608919 135.70683122 347.50639343 138.00495183 C343.59921608 142.28832701 339.91165131 146.70668906 336.26420593 151.21198308 C333.67383592 154.38412473 331.03460405 157.51041935 328.38139343 160.62995183 C325.02678938 164.57634067 321.70917172 168.54637677 318.44389343 172.56745183 C314.48863319 177.42838884 310.42165873 182.18402744 306.32963562 186.92951238 C303.22712712 190.5354113 300.1868082 194.18190008 297.19389343 197.87995183 C294.39326949 201.3342223 291.51476675 204.66785079 288.50639343 207.94245183 C284.96443411 211.82261908 281.71098923 215.84846236 278.50639343 220.00495183 C274.51778193 225.17169911 270.32945646 230.03681516 265.86845398 234.79914129 C262.08656782 238.85140358 258.60442085 243.0947249 255.13139343 247.41120183 C252.77664272 250.25652561 250.32130964 252.97641473 247.81889343 255.69245183 C242.63416049 261.33466121 237.83487214 267.21971243 233.21733093 273.33307683 C228.17306352 279.97907845 222.5763197 286.04369248 216.88139343 292.12995183 C213.9850747 290.82978667 212.02945038 289.49484761 209.89311218 287.15338933 C209.3510614 286.56428777 208.80901062 285.97518621 208.25053406 285.36823308 C207.41812195 284.44590887 207.41812195 284.44590887 206.56889343 283.50495183 C206.02555359 282.91327215 205.48221375 282.32159246 204.92240906 281.71198308 C202.05001624 278.57168113 199.23053478 275.38997005 196.43998718 272.17682683 C192.14675448 267.25344397 187.65360555 262.52745378 183.15434265 257.79303777 C179.81523114 254.2711812 176.50734238 250.73646953 173.30326843 247.09088933 C163.73123836 236.21614171 163.73123836 236.21614171 150.27983093 231.67682683 C140.94736833 231.26537558 134.07312165 232.74401248 126.89311218 238.80963933 C124.05207106 241.54725926 121.55198796 244.50689346 119.06889343 247.56745183 C118.34701843 248.41307683 117.62514343 249.25870183 116.88139343 250.12995183 C116.22139343 250.12995183 115.56139343 250.12995183 114.88139343 250.12995183 C114.61657166 250.71768377 114.35174988 251.3054157 114.0789032 251.91095769 C112.84166692 254.20356534 111.52826167 255.7665908 109.72123718 257.63385808 C108.78465271 258.61310247 108.78465271 258.61310247 107.82914734 259.61212957 C107.16576355 260.29863592 106.50237976 260.98514226 105.81889343 261.69245183 C100.58217398 267.18211988 95.65435367 272.74256943 90.92826843 278.67682683 C88.14518714 282.01227541 85.08538621 285.00836626 81.97904968 288.04010808 C79.52234493 290.4876631 77.28186888 293.06920998 75.02592468 295.70026433 C72.04691201 299.07539344 68.96195631 302.34762814 65.88139343 305.62995183 C61.72029774 310.0673365 57.60384669 314.52190605 53.63139343 319.12995183 C47.04333228 326.65916458 40.14844657 333.93052236 33.35868835 341.27765691 C30.06404602 344.84389108 26.78236466 348.42155808 23.50639343 352.00495183 C15.80391554 360.42251018 7.99302284 368.73956789 0.19389343 377.06745183 C-5.71648712 383.38329176 -11.59996848 389.71320385 -17.34907532 396.17682683 C-18.89380355 397.88182489 -20.47444202 399.52141934 -22.11860657 401.12995183 C-26.61973293 399.62957638 -29.00159332 396.17444641 -31.11860657 392.12995183 C-34.19780085 383.34187161 -34.54465745 374.76395816 -34.49282837 365.53603399 C-34.49557466 364.09665805 -34.4996316 362.65728413 -34.50487202 361.21791512 C-34.51538407 357.29457501 -34.50737897 353.37146522 -34.49612153 349.44813538 C-34.48723396 345.20477107 -34.49573604 340.96143543 -34.50198364 336.71807134 C-34.51144651 328.41877892 -34.50489426 320.11957378 -34.4927207 311.82028786 C-34.47906604 302.14936473 -34.48074156 292.47846212 -34.48285403 282.8075318 C-34.48604012 265.55081084 -34.47439708 248.29413123 -34.45478821 231.03742254 C-34.43577682 214.30205817 -34.42870346 197.56674224 -34.4342804 180.83136785 C-34.4403407 162.59162844 -34.44015718 144.35191031 -34.42879456 126.11217266 C-34.42758731 124.16675615 -34.42638132 122.22133964 -34.42517662 120.27592313 C-34.42457308 119.31881902 -34.42396954 118.36171491 -34.42334772 117.37560764 C-34.41947206 110.63804276 -34.41986079 103.90048581 -34.42176247 97.16292036 C-34.42388638 88.95200165 -34.41864523 80.7411253 -34.40414891 72.53021852 C-34.39691501 68.34277535 -34.39281937 64.15539382 -34.39739227 59.96794546 C-34.40147942 56.13197784 -34.39627282 52.29613732 -34.3837662 48.46018895 C-34.37946854 46.42145663 -34.38491679 44.38271089 -34.39075547 42.3439824 C-34.33210341 30.04736178 -32.5856626 20.19265777 -24.04048157 10.86042058 C-17.33660358 4.54330479 -9.39799894 0.01284773 0 0 Z " fill="#000000" transform="translate(234.1186065673828,199.87004816532135)"/>
<path d="M0 0 C11.19698048 4.3834021 19.36691904 19.02551474 26.0546875 28.3359375 C29.22417652 32.6764827 32.6085368 36.83204018 36 41 C37.0029179 42.24193421 38.00549729 43.48414183 39.0078125 44.7265625 C43.6796874 50.50651927 48.34900162 56.27627174 53.22119141 61.88916016 C58.39729704 67.86419873 62.95774138 74.11428874 67.44287109 80.62158203 C71.22971537 86.05637083 75.33816715 91.07121237 79.70849609 96.04272461 C83.62478314 100.5088352 87.20523632 105.15852333 90.73046875 109.94140625 C97.208143 118.6712151 104.02336149 127.11636897 111.08105469 135.38208008 C114.48426031 139.37101331 117.78169434 143.43079001 121.0390625 147.5390625 C123.16927994 150.21244295 125.33138116 152.85768967 127.5 155.5 C134.07973952 163.52818048 140.52695547 171.65663182 146.9309082 179.82519531 C149.62115816 183.25432002 152.32964264 186.66713176 155.0625 190.0625 C158.05798251 193.79007599 160.97526163 197.57286037 163.875 201.375 C167.0912399 205.58788175 170.38999191 209.70067924 173.8125 213.75 C178.49060105 219.29605061 182.86663105 225.04013099 187.22680664 230.83813477 C191.00553592 235.82100633 194.96034812 240.40202632 199.390625 244.82421875 C201.44566288 247.60251026 201.83934259 249.56371644 202 253 C199.2895585 261.34307775 192.70367865 267.78228794 185.125 271.8125 C177.53787607 275.5803429 169.61937934 276.29697822 161.27178097 276.24609566 C160.32941409 276.24840335 159.38704722 276.25071103 158.41612378 276.25308865 C155.26456217 276.25837418 152.11320572 276.24941651 148.96165466 276.24050903 C146.67699688 276.24138139 144.39233929 276.24313294 142.10768276 276.24568737 C135.83432253 276.25015886 129.56103061 276.24215985 123.28767908 276.23213124 C117.21597319 276.22438322 111.14427652 276.22605244 105.07256711 276.22749493 C92.65512893 276.23012027 80.23771206 276.22344926 67.82028008 276.21146011 C55.52739799 276.19962167 43.23452478 276.19192733 30.94163704 276.18975449 C30.17699227 276.18961701 29.41234751 276.18947953 28.62453169 276.18933788 C24.74120753 276.18866121 20.85788337 276.18805844 16.9745592 276.18748413 C-10.52323285 276.18328452 -38.02101331 276.1698132 -65.51879883 276.15087891 C-92.23071226 276.13250699 -118.94262253 276.11834126 -145.65454102 276.10986328 C-146.47807614 276.10960023 -147.30161127 276.10933718 -148.15010201 276.10906615 C-156.42046217 276.10642909 -164.69082235 276.10387746 -172.96118255 276.10138843 C-189.80850806 276.09631616 -206.65583336 276.09067365 -223.50315857 276.08468628 C-224.27775285 276.0844117 -225.05234712 276.08413712 -225.85041395 276.08385422 C-277.56694753 276.06545627 -329.28347441 276.03372463 -381 276 C-379.19978197 272.13878228 -376.71932245 269.31990829 -373.8125 266.25 C-372.80389331 265.17001199 -371.79607869 264.0892837 -370.7890625 263.0078125 C-370.3034082 262.48735352 -369.81775391 261.96689453 -369.31738281 261.43066406 C-367.7254771 259.70187098 -366.20331578 257.9206587 -364.6875 256.125 C-360.7437389 251.56055011 -356.40947111 247.38468618 -352.125 243.14428711 C-348.47055758 239.51380985 -344.98518679 235.81621863 -341.66015625 231.87890625 C-338.87240164 228.72382397 -335.83678596 225.81748329 -332.8203125 222.8828125 C-330.93616102 221.12246661 -330.93616102 221.12246661 -330 219 C-329.34 219 -328.68 219 -328 219 C-327.73590332 218.41444336 -327.47180664 217.82888672 -327.19970703 217.22558594 C-325.95279842 214.91243597 -324.60836555 213.29425111 -322.8046875 211.390625 C-322.17498047 210.72224609 -321.54527344 210.05386719 -320.89648438 209.36523438 C-320.22939453 208.66720703 -319.56230469 207.96917969 -318.875 207.25 C-318.19501953 206.53134766 -317.51503906 205.81269531 -316.81445312 205.07226562 C-312.88578118 200.93306198 -308.90317354 196.85855322 -304.83007812 192.86108398 C-303.05322657 191.05412836 -301.3934727 189.1912898 -299.7421875 187.26953125 C-296.14661382 183.13300532 -292.40302654 179.15677568 -288.625 175.1875 C-284.48238175 170.81199779 -280.453598 166.44714402 -276.75 161.6875 C-271.62518548 155.21249396 -265.65553335 149.55527328 -259.73730469 143.8112793 C-256.26688511 140.41436171 -252.94793009 137.14837448 -250.19140625 133.13671875 C-248.18021942 130.25796113 -246.53762765 128.54309718 -243.6875 126.5625 C-242.99011719 126.06878906 -242.29273438 125.57507813 -241.57421875 125.06640625 C-241.05472656 124.71449219 -240.53523437 124.36257813 -240 124 C-238.64242826 125.3298662 -237.28916504 126.66413071 -235.9375 128 C-235.18339844 128.7425 -234.42929687 129.485 -233.65234375 130.25 C-230.95002153 133.05181862 -228.40425189 135.95115904 -225.85375977 138.89013672 C-222.81192434 142.35221254 -219.65764144 145.70628523 -216.5 149.0625 C-215.56220703 150.06506836 -215.56220703 150.06506836 -214.60546875 151.08789062 C-211.53385137 154.35983088 -208.43090903 157.58791236 -205.24609375 160.75 C-202.91186938 163.06814664 -200.68349028 165.419857 -198.5625 167.9375 C-196.14382221 170.74576347 -193.64100317 173.39970593 -191 176 C-187.74970017 179.20029522 -184.75275755 182.54224576 -181.78125 186 C-179.9257479 188.08337078 -177.98776899 190.04281207 -176 192 C-173.4207494 194.53972186 -170.97782611 197.12451314 -168.625 199.875 C-165.09643401 203.98360423 -161.26894022 207.7464176 -157.41796875 211.55078125 C-154.69350082 214.3104604 -152.16452624 217.19180657 -149.64453125 220.13671875 C-147.99601248 222.00451793 -146.27696419 223.75455624 -144.5 225.5 C-141.4700631 228.48280454 -138.66611922 231.6048955 -135.890625 234.82421875 C-132.99977514 238.15108523 -130.0287909 241.40483438 -127.06640625 244.66796875 C-125.40078254 246.5476991 -123.84527445 248.45130031 -122.3125 250.4375 C-118.79181265 254.3388022 -115.78951512 255.83731681 -110.5625 256.3125 C-106.7464106 255.97775532 -103.57081219 255.40031851 -100 254 C-98.54780623 252.09831644 -98.54780623 252.09831644 -98 250 C-97.67 249.34 -97.34 248.68 -97 248 C-96.477467 243.23724023 -96.40702581 239.23536289 -98.5 234.875 C-101.12883617 231.85183841 -103.90456276 229.07060528 -106.78125 226.28515625 C-110.06175689 222.90646517 -112.92671102 219.22358736 -115.82421875 215.515625 C-118.02714222 212.96861833 -120.37154506 211.09110044 -123 209 C-124.29686081 207.4975393 -125.54684538 205.95349773 -126.75 204.375 C-130.93754654 199.02337802 -135.40037688 193.99897024 -140 189 C-140.51771973 188.43716309 -141.03543945 187.87432617 -141.56884766 187.29443359 C-145.0393155 183.52350992 -148.51731931 179.75964514 -152 176 C-148.75349771 172.18535981 -145.47667567 168.41011211 -142.125 164.6875 C-139.32791978 161.55604397 -136.66195725 158.3596247 -134.0625 155.0625 C-129.92841633 149.83410006 -125.48661397 144.92552186 -121 140 C-117.27656847 135.85058265 -113.69291536 131.63570151 -110.25 127.25 C-107.1761593 123.36756677 -103.93402667 119.68629401 -100.5625 116.0625 C-96.27156605 111.44681887 -92.21234438 106.70029903 -88.25390625 101.79296875 C-72.62919723 82.4313276 -72.62919723 82.4313276 -65.6875 75.8125 C-62.07282647 72.26208733 -59.0877573 68.29173481 -56.04589844 64.2578125 C-49.54763465 55.69081305 -42.42236537 47.63600855 -35.1875 39.6875 C-31.9083393 36.0739705 -28.89080309 32.34412709 -25.9296875 28.46875 C-19.92969292 20.79264358 -13.49399076 13.45319718 -6.9375 6.25 C-6.23995605 5.47982544 -6.23995605 5.47982544 -5.52832031 4.6940918 C-2.24359009 1.12179505 -2.24359009 1.12179505 0 0 Z " fill="#000000" transform="translate(622,338)"/>
<path d="M0 0 C3.67114137 3.00149398 6.97492072 6.29245238 10.26367188 9.70410156 C11.38708984 10.79851562 11.38708984 10.79851562 12.53320312 11.91503906 C23.17369026 22.8607027 29.2622326 39.15688266 29.63867188 54.39160156 C28.66106173 76.15972088 20.80336831 92.90555695 6.26367188 108.70410156 C5.62816406 109.39632812 4.99265625 110.08855469 4.33789062 110.80175781 C-8.67874132 123.47204922 -26.70182591 127.16693619 -44.15527344 127.06054688 C-52.00935877 126.88361841 -59.19381765 126.02719479 -66.73632812 123.70410156 C-67.620625 123.43726563 -68.50492187 123.17042969 -69.41601562 122.89550781 C-84.40234737 117.64328874 -98.86106258 103.97515749 -105.73632812 89.70410156 C-113.73734145 72.44701401 -116.47067058 52.31773561 -109.9987793 33.97875977 C-102.25135214 14.19613697 -88.32292186 0.13356051 -69.22070312 -8.85449219 C-47.03619919 -18.03171411 -19.30185374 -14.40582672 0 0 Z " fill="#FDFDFD" transform="translate(384.736328125,263.2958984375)"/>
<path d="M0 0 C2.81633528 2.18886162 5.44144441 4.51629577 8 7 C8.33 4.03 8.66 1.06 9 -2 C15.6 -2 22.2 -2 29 -2 C29.06804548 8.0930644 29.12297078 18.18597396 29.15543652 28.27921677 C29.17102622 32.96699362 29.19214067 37.65460405 29.22631836 42.34228516 C29.25915254 46.87457136 29.27690323 51.40669848 29.28463173 55.93909454 C29.29013239 57.6596756 29.30087259 59.38024894 29.31719017 61.10076141 C29.54798982 86.46789451 29.54798982 86.46789451 21.9375 94.4375 C13.30322932 103.11354941 3.38140632 105.92874469 -8.67578125 106.03125 C-18.10184742 105.64611962 -26.84138501 104.11666322 -35 99.1875 C-39.64438017 94.10770919 -41.17951708 89.86744201 -42 83 C-38.77113991 82.88332125 -35.54282555 82.81259454 -32.3125 82.75 C-31.40048828 82.71648437 -30.48847656 82.68296875 -29.54882812 82.6484375 C-22.68345365 82.54857751 -22.68345365 82.54857751 -19.04296875 84.953125 C-18.36878906 85.62859375 -17.69460938 86.3040625 -17 87 C-11.61424572 88.79525143 -5.49568442 88.85122587 -0.125 86.875 C3.59021015 84.64587391 5.06685634 82.86628732 7 79 C8.20041285 73.69817659 8.11037118 68.40818798 8 63 C7.278125 63.7425 6.55625 64.485 5.8125 65.25 C-0.56194803 71.48279363 -5.98391972 74.43366836 -14.875 75.4375 C-22.87133972 75.05520487 -30.46250112 71.6839825 -36.21484375 66.1796875 C-45.66964009 54.6353191 -47.36608448 40.38486954 -46 26 C-43.8505891 15.10639478 -38.17709106 6.29454323 -29 0 C-20.73623829 -4.84490454 -8.22661966 -5.02256779 0 0 Z " fill="#FCFCFC" transform="translate(759,748)"/>
<path d="M0 0 C6.6 0 13.2 0 20 0 C20 33.99 20 67.98 20 103 C13.73 103 7.46 103 1 103 C0.67 99.7 0.34 96.4 0 93 C-1.010625 94.258125 -2.02125 95.51625 -3.0625 96.8125 C-7.08188763 101.81622746 -11.51809274 103.72172555 -17.8671875 104.43359375 C-19.20292397 104.45680534 -20.53921327 104.45761242 -21.875 104.4375 C-22.57608887 104.43065186 -23.27717773 104.42380371 -23.99951172 104.41674805 C-31.70000257 104.17883656 -37.84472658 101.8076226 -43.59375 96.6015625 C-52.56693644 86.38210017 -55.76800137 73.32586158 -55 60 C-54.0741002 49.04098929 -50.79800834 39.22911162 -42.75 31.4375 C-35.90231811 25.92958196 -28.4158395 24.37004695 -19.73828125 24.65234375 C-11.20473601 25.73577531 -7.13473923 28.86526077 -1 35 C-0.67 23.45 -0.34 11.9 0 0 Z " fill="#FDFDFD" transform="translate(314,720)"/>
<path d="M0 0 C6.6 0 13.2 0 20 0 C20 33.99 20 67.98 20 103 C13.73 103 7.46 103 1 103 C0.67 99.7 0.34 96.4 0 93 C-1.010625 94.258125 -2.02125 95.51625 -3.0625 96.8125 C-7.07124857 101.80298291 -11.51162144 103.69561119 -17.83203125 104.46875 C-28.39803413 104.55170194 -35.79091216 103.04564117 -43.8125 95.8125 C-53.66117874 85.12761269 -54.57576601 71.94297707 -54.3125 58.16015625 C-53.80612377 46.5156129 -49.29494955 38.41808791 -41.3125 30.25 C-35.83787872 26.01112 -28.0573604 23.18845829 -21.09765625 23.6171875 C-12.46967652 25.19175363 -7.79330243 28.17716935 -1 34 C-0.67 22.78 -0.34 11.56 0 0 Z " fill="#FCFCFC" transform="translate(402,720)"/>
<path d="M0 0 C2.57727674 2.14543358 4.83228114 4.44467578 7 7 C7.61875 6.41992188 7.61875 6.41992188 8.25 5.828125 C14.97730863 -0.23846582 22.15385763 -4.42400069 31.3984375 -4.2734375 C39.09926305 -3.46404142 45.4760931 -0.57885726 50.6328125 5.20703125 C55.23966483 11.24858902 56.13064563 17.29979773 56.11352539 24.72998047 C56.11341209 26.38101273 56.11341209 26.38101273 56.11329651 28.06539917 C56.10813522 29.23748932 56.10297394 30.40957947 56.09765625 31.6171875 C56.0962413 32.82948029 56.09482635 34.04177307 56.09336853 35.290802 C56.08778345 39.15222673 56.07523361 43.01359288 56.0625 46.875 C56.05748308 49.49739499 56.0529205 52.1197909 56.04882812 54.7421875 C56.03781889 61.1614808 56.02056444 67.58073048 56 74 C49.4 74 42.8 74 36 74 C35.98541748 72.55230225 35.97083496 71.10460449 35.95581055 69.61303711 C35.89769373 64.22493195 35.82046099 58.83723884 35.73754883 53.44946289 C35.70436252 51.12075505 35.67631112 48.79196798 35.65356445 46.46313477 C35.61990331 43.10919543 35.56758001 39.75597794 35.51171875 36.40234375 C35.50532883 35.36665756 35.4989389 34.33097137 35.49235535 33.26390076 C35.35843008 26.63001785 34.78723212 21.32323829 30.375 16.0625 C26.61110945 14.37865423 23.04575583 14.34978924 19 15 C14.87303358 17.3708105 13.47331896 19.57219639 12 24 C11.67883509 26.52068662 11.67883509 26.52068662 11.68115234 29.1574707 C11.66128265 30.15813065 11.64141296 31.15879059 11.62094116 32.18977356 C11.60938995 33.2576561 11.59783875 34.32553864 11.5859375 35.42578125 C11.56657135 36.52850876 11.5472052 37.63123627 11.5272522 38.76737976 C11.46757077 42.28234166 11.42111625 45.79733651 11.375 49.3125 C11.33680974 51.69858183 11.2977574 54.08465003 11.2578125 56.47070312 C11.1618784 62.31369111 11.07780466 68.15674362 11 74 C4.07 74 -2.86 74 -10 74 C-10.01401855 71.63098511 -10.01401855 71.63098511 -10.02832031 69.21411133 C-10.06820201 63.35265939 -10.13395694 57.4917333 -10.20751953 51.63061523 C-10.23573948 49.09422563 -10.25694885 46.55774792 -10.27099609 44.02124023 C-10.29241043 40.37437801 -10.3390562 36.72857636 -10.390625 33.08203125 C-10.39185364 31.94852737 -10.39308228 30.8150235 -10.39434814 29.64717102 C-10.47153644 23.42066632 -10.47153644 23.42066632 -12.91308594 17.80737305 C-16.23558454 14.92992135 -18.56660971 14.70524494 -22.96875 14.79296875 C-26.06251545 15.10829484 -27.67400875 15.93983632 -30 18 C-33.35519701 24.08100746 -33.46944094 29.54990741 -33.51171875 36.40234375 C-33.52966995 37.48004532 -33.54762115 38.55774689 -33.56611633 39.66810608 C-33.62005446 43.09119826 -33.65406276 46.5141523 -33.6875 49.9375 C-33.72068756 52.26629519 -33.75517854 54.5950722 -33.79101562 56.92382812 C-33.87577179 62.6157855 -33.94266204 68.30770307 -34 74 C-40.6 74 -47.2 74 -54 74 C-54 48.59 -54 23.18 -54 -3 C-47.4 -3 -40.8 -3 -34 -3 C-33.67 0.3 -33.34 3.6 -33 7 C-32.01 5.741875 -31.02 4.48375 -30 3.1875 C-21.75592387 -6.18453825 -10.42712957 -5.86420415 0 0 Z " fill="#FDFDFD" transform="translate(564,749)"/>
<path d="M0 0 C8.58 0 17.16 0 26 0 C32.65064484 17.05589264 39.22190806 34.14106366 45.70437622 51.2616272 C46.4319365 53.18266604 47.16032388 55.10339188 47.88961792 57.02377319 C51.65947605 66.95483442 55.36604265 76.90329435 58.88671875 86.92578125 C59.17231155 87.73693893 59.45790436 88.54809662 59.75215149 89.38383484 C60.01916367 90.15089249 60.28617584 90.91795013 60.5612793 91.70825195 C60.90729439 92.70185478 60.90729439 92.70185478 61.26029968 93.7155304 C62.2542979 96.78536647 63.11354316 99.89740105 64 103 C56.08 103 48.16 103 40 103 C37.69 95.41 35.38 87.82 33 80 C14.685 79.505 14.685 79.505 -4 79 C-5.32 84.94 -6.64 90.88 -8 97 C-8.66 98.98 -9.32 100.96 -10 103 C-17.92 103 -25.84 103 -34 103 C-32.03254994 96.44183312 -30.03522642 89.91117002 -27.91796875 83.40234375 C-27.62696289 82.50576553 -27.33595703 81.60918732 -27.03613281 80.68544006 C-26.08836495 77.76887852 -25.13823861 74.85309442 -24.1875 71.9375 C-23.86173981 70.9374292 -23.53597961 69.9373584 -23.2003479 68.90698242 C-16.96971247 49.79582871 -10.53263208 30.75838471 -3.97802734 11.75611877 C-2.62919595 7.84433812 -1.30857749 3.92573248 0 0 Z " fill="#FCFCFC" transform="translate(189,720)"/>
<path d="M0 0 C6.32591515 4.6799316 11.57755277 9.86294541 15 17 C15.31710937 17.65097656 15.63421875 18.30195313 15.9609375 18.97265625 C20.07696287 29.07391116 18.92224284 40.90995486 15.3828125 50.99609375 C10.98343985 60.55292303 3.19898696 67.90329291 -6.4609375 72.05859375 C-8.62699367 72.81059664 -10.77703764 73.44202752 -13 74 C-13.804375 74.226875 -14.60875 74.45375 -15.4375 74.6875 C-27.55841927 76.16566089 -38.26174516 73.55828603 -48 66 C-57.70625738 56.31047755 -61.29987887 45.36583672 -61.31469727 31.87451172 C-61.10172889 21.47308573 -57.11094592 13.44889187 -50 6 C-36.7560435 -6.64309647 -15.89057284 -9.94606452 0 0 Z " fill="#010101" transform="translate(364,286)"/>
<path d="M0 0 C5.35336093 4.17029774 7.76998492 9.07279299 9.55859375 15.52734375 C10.11443582 20.01456797 10.16332441 24.4547388 10.16796875 28.97265625 C10.184505 30.22368134 10.20104126 31.47470642 10.21807861 32.76364136 C10.25815861 36.05485714 10.28166376 39.34561748 10.29681396 42.63702393 C10.31652634 46.00947465 10.35847918 49.3816454 10.3984375 52.75390625 C10.47209278 59.34502052 10.52180207 65.9359248 10.55859375 72.52734375 C4.28859375 72.52734375 -1.98140625 72.52734375 -8.44140625 72.52734375 C-9.10140625 70.21734375 -9.76140625 67.90734375 -10.44140625 65.52734375 C-10.85390625 65.93726563 -11.26640625 66.3471875 -11.69140625 66.76953125 C-19.01741105 73.60495537 -26.29336565 73.99997274 -36.03125 73.84375 C-43.38608946 73.16134222 -49.3486701 69.85695135 -54.44140625 64.52734375 C-58.00952639 58.8250209 -59.53644051 53.20128937 -58.44140625 46.52734375 C-57.06991454 41.05045965 -54.93215322 37.46097654 -50.31640625 34.15234375 C-41.90122595 29.23102668 -33.33485526 28.08930455 -23.77368164 27.26074219 C-19.64964135 26.88441069 -16.22957424 26.34959622 -12.44140625 24.52734375 C-11.49869623 21.27094716 -11.49869623 21.27094716 -11.44140625 17.52734375 C-13.59572964 14.84899575 -15.36649464 13.06479956 -18.44140625 11.52734375 C-23.34727576 11.1165463 -27.90845659 10.90165001 -32.50390625 12.77734375 C-34.5211114 14.5993355 -35.31051511 16.09467125 -36.44140625 18.52734375 C-42.88211096 18.63389953 -49.06781914 18.48939463 -55.44140625 17.52734375 C-54.70272508 9.77119149 -50.57239706 4.9587921 -44.75 0.140625 C-32.09936554 -8.69983529 -12.97561897 -7.82689336 0 0 Z " fill="#FBFBFB" transform="translate(690.44140625,750.47265625)"/>
<path d="M0 0 C7.8362026 6.54948886 11.02917815 13.56019069 14.203125 23.08203125 C14.203125 28.03203125 14.203125 32.98203125 14.203125 38.08203125 C-2.956875 38.08203125 -20.116875 38.08203125 -37.796875 38.08203125 C-34.99789692 48.28550084 -34.99789692 48.28550084 -28.734375 55.95703125 C-24.10977124 57.72815609 -19.68019247 57.72835268 -14.796875 57.08203125 C-11.08384333 55.25927025 -9.31309141 53.95425897 -7.2109375 50.40234375 C-4.796875 48.08203125 -4.796875 48.08203125 -2.80541992 47.83374023 C-0.37065747 47.96830173 1.9815719 48.26793929 4.390625 48.64453125 C5.22271484 48.74572266 6.05480469 48.84691406 6.91210938 48.95117188 C9.02371843 49.23512908 11.11699822 49.64890362 13.203125 50.08203125 C13.533125 50.74203125 13.863125 51.40203125 14.203125 52.08203125 C9.95933526 61.59633405 3.84788559 67.28454342 -5.5859375 71.3203125 C-15.22917315 74.64262867 -28.3868592 74.83656697 -37.65625 70.34375 C-47.14869806 64.74874868 -52.79087149 58.51117178 -56.0625 47.8515625 C-58.50754454 35.30120088 -58.48769699 21.29072137 -51.796875 10.08203125 C-46.31801155 2.26278716 -39.75207954 -3.18759476 -30.37890625 -5.51953125 C-19.63408132 -7.1775829 -9.12013068 -6.25416783 0 0 Z " fill="#FCFCFC" transform="translate(858.796875,750.91796875)"/>
<path d="M0 0 C6.93 0 13.86 0 21 0 C21 25.41 21 50.82 21 77 C14.07 77 7.14 77 0 77 C0 51.59 0 26.18 0 0 Z " fill="#F6F6F6" transform="translate(473,746)"/>
<path d="M0 0 C4.48741845 2.48615324 7.11474899 5.40674698 8.75 10.3125 C9.02993617 13.72424626 9.02748665 17.14052891 9.0625 20.5625 C9.09150391 21.49191406 9.12050781 22.42132812 9.15039062 23.37890625 C9.20766803 29.60892546 8.48030619 33.26751992 4.75 38.3125 C0.97036745 41.8825411 -2.78697269 44.08932634 -7.9375 44.875 C-14.28711882 43.79676284 -18.06340409 41.13694824 -21.9921875 36.1796875 C-26.65856092 29.25258658 -26.12094368 19.64109179 -24.8203125 11.68359375 C-23.24743005 5.94548554 -20.25013625 2.49440489 -15.25 -0.6875 C-9.81939165 -2.49770278 -5.15256228 -2.38847747 0 0 Z " fill="#020202" transform="translate(393.25,763.6875)"/>
<path d="M0 0 C3.98094396 2.82127768 5.85487794 6.61664731 6.796875 11.2734375 C7.77389458 29.68649882 7.77389458 29.68649882 3.796875 36.2734375 C-0.07620168 39.8534593 -3.99137434 43.05226243 -9.328125 43.5859375 C-14.82978959 43.14225487 -19.10445468 41.70893145 -22.78515625 37.4375 C-28.10561611 29.4338111 -28.49772864 19.14141952 -26.7421875 9.828125 C-24.78191746 3.76281889 -21.2354801 0.90624409 -15.765625 -2.0390625 C-9.81213041 -3.63634154 -5.30894727 -2.90140141 0 0 Z " fill="#020202" transform="translate(307.203125,764.7265625)"/>
<path d="M0 0 C4.83278862 3.71199296 6.89036356 7.97069357 7.8984375 13.91015625 C8.57690395 21.0770554 8.60640656 28.53098579 4.8984375 34.91015625 C0.51192071 39.76274045 -3.16179643 42.61119699 -9.7890625 43.28515625 C-14.81903492 43.22019351 -18.31870131 41.10031108 -22.1015625 37.91015625 C-26.28165407 32.38164805 -26.33227478 26.8340338 -26.4140625 20.16015625 C-26.44306641 19.38671875 -26.47207031 18.61328125 -26.50195312 17.81640625 C-26.56448774 12.08246291 -25.40553911 7.65870757 -22.1015625 2.91015625 C-15.62910255 -2.34871746 -7.69603826 -3.99106817 0 0 Z " fill="#020202" transform="translate(760.1015625,764.08984375)"/>
<path d="M0 0 C0.66 0 1.32 0 2 0 C2.36351562 1.17433594 2.72703125 2.34867188 3.1015625 3.55859375 C5.93885465 12.66228633 8.86671572 21.70730748 12.17041016 30.65405273 C13.23484521 33.58142761 14 35.85750304 14 39 C5.75 39 -2.5 39 -11 39 C-9.8178872 33.6804924 -8.70031429 28.71786029 -7.08984375 23.57421875 C-6.73986328 22.44822266 -6.38988281 21.32222656 -6.02929688 20.16210938 C-5.66900391 19.01548828 -5.30871094 17.86886719 -4.9375 16.6875 C-4.21655072 14.37918628 -3.4964611 12.07060384 -2.77734375 9.76171875 C-2.30155884 8.245177 -2.30155884 8.245177 -1.81616211 6.69799805 C-1.14355448 4.47454998 -0.53586159 2.25949927 0 0 Z " fill="#040404" transform="translate(202,743)"/>
<path d="M0 0 C0.3221077 6.03653699 0.56806924 10.83245145 -3 16 C-6.78280323 19.68056531 -10.6334014 21.94139383 -16.01953125 22.03515625 C-19.51311636 21.76941044 -21.68105911 21.25351712 -24.4375 19.0625 C-27.28370368 15.30551114 -27.40616003 12.7114564 -27 8 C-23.79752267 3.61141996 -19.79956843 2.33394053 -14.58984375 1.3671875 C-13.38457031 1.20476563 -12.17929687 1.04234375 -10.9375 0.875 C-9.72964844 0.70742188 -8.52179687 0.53984375 -7.27734375 0.3671875 C-4 0 -4 0 0 0 Z " fill="#040403" transform="translate(679,788)"/>
<path d="M0 0 C4.07592745 2.23022446 6.24910972 4.68571945 8.3125 8.8125 C8.3125 11.1225 8.3125 13.4325 8.3125 15.8125 C-1.9175 15.8125 -12.1475 15.8125 -22.6875 15.8125 C-21.23673939 5.65717574 -21.23673939 5.65717574 -16.11328125 1.55078125 C-10.66283717 -1.9399526 -6.17504436 -1.98857361 0 0 Z " fill="#060606" transform="translate(844.6875,761.1875)"/>
<path d="M0 0 C2.87029869 1.79393668 4.49131638 2.98263276 6 6 C6.55512815 10.63213493 6.6364242 13.98172127 4.125 18 C0.59185943 21.32530877 -2.04661263 21.33074386 -6.73828125 21.29296875 C-10.0542278 20.86344199 -11.74987627 19.39075646 -14 17 C-15.72869779 13.54260443 -15.48966895 9.78024432 -15 6 C-11.10231905 -0.23628951 -6.98983895 -0.90541955 0 0 Z " fill="#FDFDFD" transform="translate(488,717)"/>
</svg>
